<svg width="91" height="17" viewBox="0 0 91 17" fill="none" xmlns="http://www.w3.org/2000/svg">
<path d="M0 16V0H2.4V16H0Z" fill="black"/>
<path d="M7.64269 16.312C6.34669 16.312 5.28269 15.944 4.45069 15.208C3.63469 14.472 3.22669 13.52 3.22669 12.352C3.22669 11.2 3.63469 10.272 4.45069 9.568C5.28269 8.848 6.37869 8.488 7.73869 8.488H11.6027V8.152C11.6027 7.368 11.3387 6.72 10.8107 6.208C10.2987 5.696 9.59469 5.44 8.69869 5.44C7.88269 5.44 7.23469 5.648 6.75469 6.064C6.27469 6.48 5.98669 6.968 5.89069 7.528L3.75469 6.928C4.02669 5.824 4.59469 4.952 5.45869 4.312C6.33869 3.672 7.41869 3.352 8.69869 3.352C10.3467 3.352 11.6347 3.824 12.5627 4.768C13.4907 5.696 13.9547 6.824 13.9547 8.152V13.456C13.9547 13.84 14.1627 14.032 14.5787 14.032H14.9627V16H13.7627C13.1547 16 12.6827 15.832 12.3467 15.496C12.0107 15.16 11.8427 14.728 11.8427 14.2V13.696H11.3627C11.1867 14.496 10.7707 15.136 10.1147 15.616C9.45869 16.08 8.63469 16.312 7.64269 16.312ZM5.65069 12.304C5.65069 12.912 5.88269 13.4 6.34669 13.768C6.82669 14.12 7.41069 14.296 8.09869 14.296C9.26669 14.296 10.1387 13.944 10.7147 13.24C11.3067 12.536 11.6027 11.696 11.6027 10.72V10.384H8.00269C7.26669 10.384 6.69069 10.56 6.27469 10.912C5.85869 11.248 5.65069 11.712 5.65069 12.304Z" fill="black"/>
<path d="M19.9656 16.312C18.5736 16.312 17.4216 15.976 16.5096 15.304C15.5976 14.632 15.0056 13.72 14.7336 12.568L16.9176 11.992C17.0776 12.728 17.4376 13.288 17.9976 13.672C18.5736 14.04 19.2536 14.224 20.0376 14.224C20.9176 14.224 21.5976 14.064 22.0776 13.744C22.5576 13.424 22.7976 13.016 22.7976 12.52C22.7976 11.72 22.2136 11.192 21.0456 10.936L18.9096 10.48C16.6376 9.984 15.5016 8.808 15.5016 6.952C15.5016 5.928 15.9256 5.072 16.7736 4.384C17.6376 3.696 18.7816 3.352 20.2056 3.352C21.4696 3.352 22.5416 3.672 23.4216 4.312C24.3016 4.952 24.8616 5.816 25.1016 6.904L22.9656 7.48C22.8536 6.856 22.5496 6.352 22.0536 5.968C21.5576 5.584 20.9416 5.392 20.2056 5.392C19.4696 5.392 18.8856 5.544 18.4536 5.848C18.0216 6.136 17.8056 6.504 17.8056 6.952C17.8056 7.72 18.3896 8.224 19.5576 8.464L21.6456 8.92C23.9656 9.416 25.1256 10.616 25.1256 12.52C25.1256 13.656 24.6536 14.576 23.7096 15.28C22.7816 15.968 21.5336 16.312 19.9656 16.312Z" fill="black"/>
<path d="M30.7224 16C29.7304 16 28.9224 15.72 28.2984 15.16C27.6744 14.6 27.3624 13.768 27.3624 12.664V5.704H25.2024V3.664H27.4104V0H29.7624V3.664H33.4344V5.704H29.7624V12.544C29.7624 13.424 30.1864 13.864 31.0344 13.864H33.4344V16H30.7224Z" fill="black"/>
<path d="M34.2308 16V3.664H36.6307V5.872H37.1107C37.3027 5.168 37.7027 4.576 38.3107 4.096C38.9187 3.6 39.6707 3.352 40.5667 3.352C41.5267 3.352 42.3347 3.592 42.9907 4.072C43.6467 4.536 44.1027 5.136 44.3587 5.872H44.8867C45.1427 5.136 45.5668 4.536 46.1588 4.072C46.7508 3.592 47.4948 3.352 48.3908 3.352C49.7188 3.352 50.7668 3.784 51.5348 4.648C52.3028 5.512 52.6868 6.576 52.6868 7.84V16H50.2868V8.536C50.2868 7.656 50.0388 6.952 49.5428 6.424C49.0468 5.896 48.3747 5.632 47.5267 5.632C46.6947 5.632 46.0067 5.92 45.4627 6.496C44.9347 7.056 44.6707 7.824 44.6707 8.8V16H42.2707V8.512C42.2707 7.648 42.0067 6.952 41.4787 6.424C40.9507 5.896 40.2787 5.632 39.4627 5.632C38.6307 5.632 37.9507 5.928 37.4227 6.52C36.8947 7.112 36.6307 7.872 36.6307 8.8V16H34.2308Z" fill="black"/>
<path d="M54.0351 15.828V4.492H56.4351V15.828H54.0351ZM54.0111 2V0H56.4351V2H54.0111Z" fill="black"/>
<path d="M57.7612 16V0H60.1613V16H57.7612Z" fill="black"/>
<path d="M66.8439 16.312C65.0039 16.312 63.5079 15.704 62.3559 14.488C61.2039 13.256 60.6279 11.68 60.6279 9.76C60.6279 7.856 61.2119 6.312 62.3799 5.128C63.5639 3.944 65.0359 3.352 66.7959 3.352C68.6039 3.352 70.0439 3.952 71.1159 5.152C72.1879 6.336 72.6919 7.776 72.6279 9.472L72.5799 10.624H63.0039C63.1479 11.728 63.5479 12.6 64.2039 13.24C64.8759 13.88 65.7559 14.2 66.8439 14.2C68.3639 14.2 69.5159 13.592 70.2999 12.376L72.0759 13.528C71.5639 14.392 70.8599 15.072 69.9639 15.568C69.0679 16.064 68.0279 16.312 66.8439 16.312ZM63.0519 8.608H70.2999C70.2679 7.712 69.9239 6.952 69.2679 6.328C68.6119 5.704 67.7879 5.392 66.7959 5.392C65.7879 5.392 64.9559 5.688 64.2999 6.28C63.6599 6.856 63.2439 7.632 63.0519 8.608Z" fill="black"/>
<path d="M74 0H91V16H74V0Z" fill="black"/>
<path d="M78.3105 11V10.896L80.1665 5.39999H81.5585L83.4065 10.896V11H82.5745L82.1585 9.75999H79.5505L79.1345 11H78.3105ZM79.8065 8.98399H81.9025L80.9345 6.10399H80.7665L79.8065 8.98399Z" fill="white"/>
<path d="M83.167 11V10.24H84.239V6.15999H83.167V5.39999H86.135V6.15999H85.063V10.24H86.135V11H83.167Z" fill="white"/>
</svg>
