<svg width="226" height="19" viewBox="0 0 226 19" fill="none" xmlns="http://www.w3.org/2000/svg">
<g clip-path="url(#clip0_2038_19448)">
<path d="M0 17.5V1.5H2.4V17.5H0Z" fill="white"/>
<path d="M7.64256 17.812C6.34656 17.812 5.28256 17.444 4.45056 16.708C3.63456 15.972 3.22656 15.02 3.22656 13.852C3.22656 12.7 3.63456 11.772 4.45056 11.068C5.28256 10.348 6.37856 9.98799 7.73856 9.98799H11.6026V9.65199C11.6026 8.86799 11.3386 8.21999 10.8106 7.70799C10.2986 7.19599 9.59456 6.93999 8.69856 6.93999C7.88256 6.93999 7.23456 7.14799 6.75456 7.56399C6.27456 7.97999 5.98656 8.46799 5.89056 9.02799L3.75456 8.42799C4.02656 7.32399 4.59456 6.45199 5.45856 5.81199C6.33856 5.17199 7.41856 4.85199 8.69856 4.85199C10.3466 4.85199 11.6346 5.32399 12.5626 6.26799C13.4906 7.19599 13.9546 8.32399 13.9546 9.65199V14.956C13.9546 15.34 14.1626 15.532 14.5786 15.532H14.9626V17.5H13.7626C13.1546 17.5 12.6826 17.332 12.3466 16.996C12.0106 16.66 11.8426 16.228 11.8426 15.7V15.196H11.3626C11.1866 15.996 10.7706 16.636 10.1146 17.116C9.45856 17.58 8.63456 17.812 7.64256 17.812ZM5.65056 13.804C5.65056 14.412 5.88256 14.9 6.34656 15.268C6.82656 15.62 7.41056 15.796 8.09856 15.796C9.26656 15.796 10.1386 15.444 10.7146 14.74C11.3066 14.036 11.6026 13.196 11.6026 12.22V11.884H8.00256C7.26656 11.884 6.69056 12.06 6.27456 12.412C5.85856 12.748 5.65056 13.212 5.65056 13.804Z" fill="white"/>
<path d="M19.9654 17.812C18.5734 17.812 17.4214 17.476 16.5094 16.804C15.5974 16.132 15.0054 15.22 14.7334 14.068L16.9174 13.492C17.0774 14.228 17.4374 14.788 17.9974 15.172C18.5734 15.54 19.2534 15.724 20.0374 15.724C20.9174 15.724 21.5974 15.564 22.0774 15.244C22.5574 14.924 22.7974 14.516 22.7974 14.02C22.7974 13.22 22.2134 12.692 21.0454 12.436L18.9094 11.98C16.6374 11.484 15.5014 10.308 15.5014 8.45199C15.5014 7.42799 15.9254 6.57199 16.7734 5.88399C17.6374 5.19599 18.7814 4.85199 20.2054 4.85199C21.4694 4.85199 22.5414 5.17199 23.4214 5.81199C24.3014 6.45199 24.8614 7.31599 25.1014 8.40399L22.9654 8.97999C22.8534 8.35599 22.5494 7.85199 22.0534 7.46799C21.5574 7.08399 20.9414 6.89199 20.2054 6.89199C19.4694 6.89199 18.8854 7.04399 18.4534 7.34799C18.0214 7.63599 17.8054 8.00399 17.8054 8.45199C17.8054 9.21999 18.3894 9.72399 19.5574 9.96399L21.6454 10.42C23.9654 10.916 25.1254 12.116 25.1254 14.02C25.1254 15.156 24.6534 16.076 23.7094 16.78C22.7814 17.468 21.5334 17.812 19.9654 17.812Z" fill="white"/>
<path d="M30.7226 17.5C29.7306 17.5 28.9226 17.22 28.2986 16.66C27.6746 16.1 27.3626 15.268 27.3626 14.164V7.204H25.2026V5.164H27.4106V1.5H29.7626V5.164H33.4346V7.204H29.7626V14.044C29.7626 14.924 30.1866 15.364 31.0346 15.364H33.4346V17.5H30.7226Z" fill="white"/>
<path d="M34.231 17.5V5.16399H36.6309V7.37199H37.1109C37.3029 6.66799 37.7029 6.07599 38.3109 5.59599C38.9189 5.09999 39.6709 4.85199 40.5669 4.85199C41.5269 4.85199 42.3349 5.09199 42.9909 5.57199C43.6469 6.03599 44.1029 6.63599 44.3589 7.37199H44.8869C45.1429 6.63599 45.567 6.03599 46.159 5.57199C46.751 5.09199 47.495 4.85199 48.391 4.85199C49.719 4.85199 50.767 5.28399 51.535 6.14799C52.303 7.01199 52.687 8.07599 52.687 9.33999V17.5H50.287V10.036C50.287 9.15599 50.039 8.45199 49.543 7.92399C49.047 7.39599 48.3749 7.13199 47.5269 7.13199C46.6949 7.13199 46.0069 7.41999 45.4629 7.99599C44.9349 8.55599 44.6709 9.32399 44.6709 10.3V17.5H42.2709V10.012C42.2709 9.14799 42.0069 8.45199 41.4789 7.92399C40.9509 7.39599 40.2789 7.13199 39.4629 7.13199C38.6309 7.13199 37.9509 7.42799 37.4229 8.01999C36.8949 8.61199 36.6309 9.37199 36.6309 10.3V17.5H34.231Z" fill="white"/>
<path d="M54.0352 17.328V5.992H56.4352V17.328H54.0352ZM54.0112 3.5V1.5H56.4352V3.5H54.0112Z" fill="white"/>
<path d="M57.7612 17.5V1.5H60.1613V17.5H57.7612Z" fill="white"/>
<path d="M66.8439 17.812C65.0039 17.812 63.5079 17.204 62.3559 15.988C61.2039 14.756 60.6279 13.18 60.6279 11.26C60.6279 9.35599 61.2119 7.81199 62.3799 6.62799C63.5639 5.44399 65.0359 4.85199 66.7959 4.85199C68.6039 4.85199 70.0439 5.45199 71.1159 6.65199C72.1879 7.83599 72.6919 9.27599 72.6279 10.972L72.5799 12.124H63.0039C63.1479 13.228 63.5479 14.1 64.2039 14.74C64.8759 15.38 65.7559 15.7 66.8439 15.7C68.3639 15.7 69.5159 15.092 70.2999 13.876L72.0759 15.028C71.5639 15.892 70.8599 16.572 69.9639 17.068C69.0679 17.564 68.0279 17.812 66.8439 17.812ZM63.0519 10.108H70.2999C70.2679 9.21199 69.9239 8.45199 69.2679 7.82799C68.6119 7.20399 67.7879 6.89199 66.7959 6.89199C65.7879 6.89199 64.9559 7.18799 64.2999 7.77999C63.6599 8.35599 63.2439 9.13199 63.0519 10.108Z" fill="white"/>
<path d="M74 1.5H91V17.5H74V1.5Z" fill="white"/>
<path d="M78.3105 12.5V12.396L80.1665 6.89999H81.5585L83.4065 12.396V12.5H82.5745L82.1585 11.26H79.5505L79.1345 12.5H78.3105ZM79.8065 10.484H81.9025L80.9345 7.60399H80.7665L79.8065 10.484Z" fill="black"/>
<path d="M83.167 12.5V11.74H84.239V7.65999H83.167V6.89999H86.135V7.65999H85.063V11.74H86.135V12.5H83.167Z" fill="black"/>
<path d="M99.5 1.5V17.5" stroke="white"/>
<path d="M113.045 15H109.278V3.36364H113.165C114.305 3.36364 115.284 3.59659 116.102 4.0625C116.92 4.52462 117.547 5.18939 117.983 6.05682C118.422 6.92045 118.642 7.95644 118.642 9.16477C118.642 10.3769 118.42 11.4186 117.977 12.2898C117.538 13.161 116.902 13.8314 116.068 14.3011C115.235 14.767 114.227 15 113.045 15ZM111.034 13.4659H112.949C113.835 13.4659 114.572 13.2992 115.159 12.9659C115.746 12.6288 116.186 12.142 116.477 11.5057C116.769 10.8655 116.915 10.0852 116.915 9.16477C116.915 8.25189 116.769 7.47727 116.477 6.84091C116.189 6.20455 115.759 5.72159 115.188 5.39205C114.616 5.0625 113.905 4.89773 113.057 4.89773H111.034V13.4659ZM123.725 15.1761C122.907 15.1761 122.193 14.9886 121.583 14.6136C120.973 14.2386 120.5 13.714 120.163 13.0398C119.825 12.3655 119.657 11.5777 119.657 10.6761C119.657 9.77083 119.825 8.97917 120.163 8.30114C120.5 7.62311 120.973 7.09659 121.583 6.72159C122.193 6.34659 122.907 6.15909 123.725 6.15909C124.543 6.15909 125.257 6.34659 125.867 6.72159C126.477 7.09659 126.95 7.62311 127.288 8.30114C127.625 8.97917 127.793 9.77083 127.793 10.6761C127.793 11.5777 127.625 12.3655 127.288 13.0398C126.95 13.714 126.477 14.2386 125.867 14.6136C125.257 14.9886 124.543 15.1761 123.725 15.1761ZM123.731 13.75C124.261 13.75 124.7 13.6098 125.049 13.3295C125.397 13.0492 125.655 12.6761 125.822 12.2102C125.992 11.7443 126.077 11.2311 126.077 10.6705C126.077 10.1136 125.992 9.60227 125.822 9.13636C125.655 8.66667 125.397 8.28977 125.049 8.00568C124.7 7.72159 124.261 7.57955 123.731 7.57955C123.197 7.57955 122.753 7.72159 122.401 8.00568C122.053 8.28977 121.793 8.66667 121.623 9.13636C121.456 9.60227 121.373 10.1136 121.373 10.6705C121.373 11.2311 121.456 11.7443 121.623 12.2102C121.793 12.6761 122.053 13.0492 122.401 13.3295C122.753 13.6098 123.197 13.75 123.731 13.75ZM132.726 15.1761C131.881 15.1761 131.154 14.9848 130.544 14.6023C129.938 14.2159 129.472 13.6837 129.146 13.0057C128.82 12.3277 128.657 11.5511 128.657 10.6761C128.657 9.78977 128.824 9.00758 129.157 8.32955C129.491 7.64773 129.961 7.11553 130.567 6.73295C131.173 6.35038 131.887 6.15909 132.709 6.15909C133.372 6.15909 133.962 6.2822 134.481 6.52841C135 6.77083 135.419 7.11174 135.737 7.55114C136.059 7.99053 136.25 8.50379 136.311 9.09091H134.657C134.567 8.68182 134.358 8.32955 134.032 8.03409C133.711 7.73864 133.279 7.59091 132.737 7.59091C132.264 7.59091 131.849 7.71591 131.493 7.96591C131.14 8.21212 130.866 8.56439 130.669 9.02273C130.472 9.47727 130.373 10.0152 130.373 10.6364C130.373 11.2727 130.47 11.822 130.663 12.2841C130.856 12.7462 131.129 13.1042 131.481 13.358C131.837 13.6117 132.256 13.7386 132.737 13.7386C133.059 13.7386 133.351 13.6799 133.612 13.5625C133.877 13.4413 134.099 13.2689 134.277 13.0455C134.459 12.822 134.586 12.553 134.657 12.2386H136.311C136.25 12.803 136.067 13.3068 135.76 13.75C135.453 14.1932 135.042 14.5417 134.527 14.7955C134.015 15.0492 133.415 15.1761 132.726 15.1761ZM143.016 11.3807V6.27273H144.721V15H143.05V13.4886H142.959C142.759 13.9545 142.437 14.3428 141.993 14.6534C141.554 14.9602 141.007 15.1136 140.351 15.1136C139.791 15.1136 139.294 14.9905 138.863 14.7443C138.435 14.4943 138.098 14.125 137.851 13.6364C137.609 13.1477 137.488 12.5436 137.488 11.8239V6.27273H139.187V11.6193C139.187 12.214 139.351 12.6875 139.681 13.0398C140.01 13.392 140.438 13.5682 140.965 13.5682C141.283 13.5682 141.599 13.4886 141.914 13.3295C142.232 13.1705 142.495 12.9299 142.704 12.608C142.916 12.286 143.02 11.8769 143.016 11.3807ZM146.363 15V6.27273H147.994V7.69318H148.102C148.284 7.21212 148.581 6.83712 148.994 6.56818C149.407 6.29545 149.901 6.15909 150.477 6.15909C151.06 6.15909 151.549 6.29545 151.943 6.56818C152.341 6.84091 152.634 7.21591 152.824 7.69318H152.914C153.123 7.22727 153.454 6.85606 153.909 6.57955C154.363 6.29924 154.905 6.15909 155.534 6.15909C156.325 6.15909 156.971 6.4072 157.471 6.90341C157.975 7.39962 158.227 8.14773 158.227 9.14773V15H156.528V9.30682C156.528 8.71591 156.367 8.28788 156.045 8.02273C155.723 7.75758 155.339 7.625 154.892 7.625C154.339 7.625 153.909 7.79545 153.602 8.13636C153.295 8.47348 153.142 8.9072 153.142 9.4375V15H151.449V9.19886C151.449 8.72538 151.301 8.3447 151.005 8.05682C150.71 7.76894 150.325 7.625 149.852 7.625C149.53 7.625 149.233 7.71023 148.96 7.88068C148.691 8.04735 148.473 8.2803 148.306 8.57955C148.144 8.87879 148.062 9.22538 148.062 9.61932V15H146.363ZM163.625 15.1761C162.765 15.1761 162.025 14.9924 161.404 14.625C160.786 14.2538 160.309 13.733 159.972 13.0625C159.639 12.3883 159.472 11.5985 159.472 10.6932C159.472 9.79924 159.639 9.01136 159.972 8.32955C160.309 7.64773 160.779 7.11553 161.381 6.73295C161.987 6.35038 162.695 6.15909 163.506 6.15909C163.998 6.15909 164.476 6.24053 164.938 6.40341C165.4 6.56629 165.815 6.82197 166.182 7.17045C166.55 7.51894 166.839 7.97159 167.051 8.52841C167.264 9.08144 167.37 9.75379 167.37 10.5455V11.1477H160.432V9.875H165.705C165.705 9.42803 165.614 9.0322 165.432 8.6875C165.25 8.33902 164.995 8.06439 164.665 7.86364C164.339 7.66288 163.957 7.5625 163.517 7.5625C163.04 7.5625 162.623 7.67992 162.267 7.91477C161.915 8.14583 161.642 8.44886 161.449 8.82386C161.26 9.19508 161.165 9.59848 161.165 10.0341V11.0284C161.165 11.6117 161.267 12.108 161.472 12.517C161.68 12.9261 161.97 13.2386 162.341 13.4545C162.712 13.6667 163.146 13.7727 163.642 13.7727C163.964 13.7727 164.258 13.7273 164.523 13.6364C164.788 13.5417 165.017 13.4015 165.211 13.2159C165.404 13.0303 165.551 12.8011 165.654 12.5284L167.262 12.8182C167.133 13.2917 166.902 13.7064 166.568 14.0625C166.239 14.4148 165.824 14.6894 165.324 14.8864C164.828 15.0795 164.262 15.1761 163.625 15.1761ZM170.313 9.81818V15H168.615V6.27273H170.245V7.69318H170.353C170.554 7.23106 170.868 6.85985 171.296 6.57955C171.728 6.29924 172.272 6.15909 172.927 6.15909C173.522 6.15909 174.043 6.28409 174.49 6.53409C174.937 6.7803 175.283 7.14773 175.529 7.63636C175.776 8.125 175.899 8.72917 175.899 9.44886V15H174.2V9.65341C174.2 9.02083 174.035 8.52652 173.705 8.17045C173.376 7.81061 172.923 7.63068 172.347 7.63068C171.954 7.63068 171.603 7.71591 171.296 7.88636C170.993 8.05682 170.753 8.30682 170.575 8.63636C170.401 8.96212 170.313 9.35606 170.313 9.81818ZM181.611 6.27273V7.63636H176.844V6.27273H181.611ZM178.122 4.18182H179.821V12.4375C179.821 12.767 179.87 13.0152 179.969 13.1818C180.067 13.3447 180.194 13.4564 180.35 13.517C180.509 13.5739 180.681 13.6023 180.867 13.6023C181.003 13.6023 181.122 13.5928 181.225 13.5739C181.327 13.5549 181.406 13.5398 181.463 13.5284L181.77 14.9318C181.672 14.9697 181.531 15.0076 181.35 15.0455C181.168 15.0871 180.94 15.1098 180.668 15.1136C180.221 15.1212 179.804 15.0417 179.418 14.875C179.031 14.7083 178.719 14.4508 178.48 14.1023C178.242 13.7538 178.122 13.3163 178.122 12.7898V4.18182ZM185.39 15.1932C184.837 15.1932 184.337 15.0909 183.89 14.8864C183.443 14.678 183.089 14.3769 182.827 13.983C182.57 13.589 182.441 13.1061 182.441 12.5341C182.441 12.0417 182.536 11.6364 182.725 11.3182C182.915 11 183.17 10.7481 183.492 10.5625C183.814 10.3769 184.174 10.2367 184.572 10.142C184.969 10.0473 185.375 9.97538 185.788 9.92614C186.31 9.86553 186.735 9.81629 187.06 9.77841C187.386 9.73674 187.623 9.67045 187.771 9.57955C187.918 9.48864 187.992 9.34091 187.992 9.13636V9.09659C187.992 8.60038 187.852 8.21591 187.572 7.94318C187.295 7.67045 186.882 7.53409 186.333 7.53409C185.761 7.53409 185.31 7.66098 184.981 7.91477C184.655 8.16477 184.43 8.44318 184.305 8.75L182.708 8.38636C182.898 7.85606 183.174 7.42803 183.538 7.10227C183.905 6.77273 184.327 6.53409 184.805 6.38636C185.282 6.23485 185.784 6.15909 186.31 6.15909C186.659 6.15909 187.028 6.20076 187.418 6.28409C187.812 6.36364 188.18 6.51136 188.521 6.72727C188.865 6.94318 189.148 7.25189 189.367 7.65341C189.587 8.05114 189.697 8.56818 189.697 9.20455V15H188.038V13.8068H187.969C187.86 14.0265 187.695 14.2424 187.475 14.4545C187.255 14.6667 186.973 14.8428 186.629 14.983C186.284 15.1231 185.871 15.1932 185.39 15.1932ZM185.759 13.8295C186.229 13.8295 186.63 13.7367 186.964 13.5511C187.301 13.3655 187.557 13.1231 187.731 12.8239C187.909 12.5208 187.998 12.197 187.998 11.8523V10.7273C187.937 10.7879 187.82 10.8447 187.646 10.8977C187.475 10.947 187.28 10.9905 187.06 11.0284C186.841 11.0625 186.627 11.0947 186.418 11.125C186.21 11.1515 186.036 11.1742 185.896 11.1932C185.566 11.2348 185.265 11.3049 184.992 11.4034C184.723 11.5019 184.507 11.6439 184.344 11.8295C184.185 12.0114 184.106 12.2538 184.106 12.5568C184.106 12.9773 184.261 13.2955 184.572 13.5114C184.882 13.7235 185.278 13.8295 185.759 13.8295ZM195.393 6.27273V7.63636H190.626V6.27273H195.393ZM191.905 4.18182H193.604V12.4375C193.604 12.767 193.653 13.0152 193.751 13.1818C193.85 13.3447 193.977 13.4564 194.132 13.517C194.291 13.5739 194.463 13.6023 194.649 13.6023C194.785 13.6023 194.905 13.5928 195.007 13.5739C195.109 13.5549 195.189 13.5398 195.246 13.5284L195.552 14.9318C195.454 14.9697 195.314 15.0076 195.132 15.0455C194.95 15.0871 194.723 15.1098 194.45 15.1136C194.003 15.1212 193.587 15.0417 193.2 14.875C192.814 14.7083 192.501 14.4508 192.263 14.1023C192.024 13.7538 191.905 13.3163 191.905 12.7898V4.18182ZM196.633 15V6.27273H198.332V15H196.633ZM197.491 4.92614C197.195 4.92614 196.941 4.82765 196.729 4.63068C196.521 4.42992 196.417 4.19129 196.417 3.91477C196.417 3.63447 196.521 3.39583 196.729 3.19886C196.941 2.99811 197.195 2.89773 197.491 2.89773C197.786 2.89773 198.038 2.99811 198.246 3.19886C198.458 3.39583 198.564 3.63447 198.564 3.91477C198.564 4.19129 198.458 4.42992 198.246 4.63068C198.038 4.82765 197.786 4.92614 197.491 4.92614ZM203.653 15.1761C202.835 15.1761 202.121 14.9886 201.511 14.6136C200.901 14.2386 200.428 13.714 200.091 13.0398C199.754 12.3655 199.585 11.5777 199.585 10.6761C199.585 9.77083 199.754 8.97917 200.091 8.30114C200.428 7.62311 200.901 7.09659 201.511 6.72159C202.121 6.34659 202.835 6.15909 203.653 6.15909C204.471 6.15909 205.185 6.34659 205.795 6.72159C206.405 7.09659 206.879 7.62311 207.216 8.30114C207.553 8.97917 207.721 9.77083 207.721 10.6761C207.721 11.5777 207.553 12.3655 207.216 13.0398C206.879 13.714 206.405 14.2386 205.795 14.6136C205.185 14.9886 204.471 15.1761 203.653 15.1761ZM203.659 13.75C204.189 13.75 204.629 13.6098 204.977 13.3295C205.326 13.0492 205.583 12.6761 205.75 12.2102C205.92 11.7443 206.005 11.2311 206.005 10.6705C206.005 10.1136 205.92 9.60227 205.75 9.13636C205.583 8.66667 205.326 8.28977 204.977 8.00568C204.629 7.72159 204.189 7.57955 203.659 7.57955C203.125 7.57955 202.682 7.72159 202.329 8.00568C201.981 8.28977 201.721 8.66667 201.551 9.13636C201.384 9.60227 201.301 10.1136 201.301 10.6705C201.301 11.2311 201.384 11.7443 201.551 12.2102C201.721 12.6761 201.981 13.0492 202.329 13.3295C202.682 13.6098 203.125 13.75 203.659 13.75ZM210.677 9.81818V15H208.978V6.27273H210.608V7.69318H210.716C210.917 7.23106 211.231 6.85985 211.659 6.57955C212.091 6.29924 212.635 6.15909 213.29 6.15909C213.885 6.15909 214.406 6.28409 214.853 6.53409C215.3 6.7803 215.646 7.14773 215.892 7.63636C216.139 8.125 216.262 8.72917 216.262 9.44886V15H214.563V9.65341C214.563 9.02083 214.398 8.52652 214.069 8.17045C213.739 7.81061 213.286 7.63068 212.711 7.63068C212.317 7.63068 211.966 7.71591 211.659 7.88636C211.356 8.05682 211.116 8.30682 210.938 8.63636C210.764 8.96212 210.677 9.35606 210.677 9.81818ZM224.44 8.40341L222.9 8.67614C222.836 8.47917 222.734 8.29167 222.593 8.11364C222.457 7.93561 222.271 7.78977 222.037 7.67614C221.802 7.5625 221.508 7.50568 221.156 7.50568C220.675 7.50568 220.273 7.61364 219.951 7.82955C219.629 8.04167 219.468 8.31629 219.468 8.65341C219.468 8.94508 219.576 9.17992 219.792 9.35795C220.008 9.53598 220.357 9.68182 220.838 9.79545L222.224 10.1136C223.027 10.2992 223.626 10.5852 224.019 10.9716C224.413 11.358 224.61 11.8598 224.61 12.4773C224.61 13 224.459 13.4659 224.156 13.875C223.857 14.2803 223.438 14.5985 222.9 14.8295C222.366 15.0606 221.747 15.1761 221.042 15.1761C220.065 15.1761 219.268 14.9678 218.65 14.5511C218.033 14.1307 217.654 13.5341 217.514 12.7614L219.156 12.5114C219.258 12.9394 219.468 13.2633 219.787 13.483C220.105 13.6989 220.519 13.8068 221.031 13.8068C221.588 13.8068 222.033 13.6913 222.366 13.4602C222.699 13.2254 222.866 12.9394 222.866 12.6023C222.866 12.3295 222.764 12.1004 222.559 11.9148C222.359 11.7292 222.05 11.589 221.633 11.4943L220.156 11.1705C219.341 10.9848 218.739 10.6894 218.349 10.2841C217.963 9.87879 217.769 9.36553 217.769 8.74432C217.769 8.22917 217.913 7.77841 218.201 7.39205C218.489 7.00568 218.887 6.70455 219.394 6.48864C219.902 6.26894 220.484 6.15909 221.139 6.15909C222.082 6.15909 222.824 6.36364 223.366 6.77273C223.908 7.17803 224.266 7.72159 224.44 8.40341Z" fill="white"/>
</g>
<defs>
<clipPath id="clip0_2038_19448">
<rect width="226" height="19" fill="white"/>
</clipPath>
</defs>
</svg>
