<svg width="209" height="19" viewBox="0 0 209 19" fill="none" xmlns="http://www.w3.org/2000/svg">
<g clip-path="url(#clip0_2039_19466)">
<path d="M0 17.5V1.5H2.4V17.5H0Z" fill="white"/>
<path d="M7.64256 17.812C6.34656 17.812 5.28256 17.444 4.45056 16.708C3.63456 15.972 3.22656 15.02 3.22656 13.852C3.22656 12.7 3.63456 11.772 4.45056 11.068C5.28256 10.348 6.37856 9.98799 7.73856 9.98799H11.6026V9.65199C11.6026 8.86799 11.3386 8.21999 10.8106 7.70799C10.2986 7.19599 9.59456 6.93999 8.69856 6.93999C7.88256 6.93999 7.23456 7.14799 6.75456 7.56399C6.27456 7.97999 5.98656 8.46799 5.89056 9.02799L3.75456 8.42799C4.02656 7.32399 4.59456 6.45199 5.45856 5.81199C6.33856 5.17199 7.41856 4.85199 8.69856 4.85199C10.3466 4.85199 11.6346 5.32399 12.5626 6.26799C13.4906 7.19599 13.9546 8.32399 13.9546 9.65199V14.956C13.9546 15.34 14.1626 15.532 14.5786 15.532H14.9626V17.5H13.7626C13.1546 17.5 12.6826 17.332 12.3466 16.996C12.0106 16.66 11.8426 16.228 11.8426 15.7V15.196H11.3626C11.1866 15.996 10.7706 16.636 10.1146 17.116C9.45856 17.58 8.63456 17.812 7.64256 17.812ZM5.65056 13.804C5.65056 14.412 5.88256 14.9 6.34656 15.268C6.82656 15.62 7.41056 15.796 8.09856 15.796C9.26656 15.796 10.1386 15.444 10.7146 14.74C11.3066 14.036 11.6026 13.196 11.6026 12.22V11.884H8.00256C7.26656 11.884 6.69056 12.06 6.27456 12.412C5.85856 12.748 5.65056 13.212 5.65056 13.804Z" fill="white"/>
<path d="M19.9654 17.812C18.5734 17.812 17.4214 17.476 16.5094 16.804C15.5974 16.132 15.0054 15.22 14.7334 14.068L16.9174 13.492C17.0774 14.228 17.4374 14.788 17.9974 15.172C18.5734 15.54 19.2534 15.724 20.0374 15.724C20.9174 15.724 21.5974 15.564 22.0774 15.244C22.5574 14.924 22.7974 14.516 22.7974 14.02C22.7974 13.22 22.2134 12.692 21.0454 12.436L18.9094 11.98C16.6374 11.484 15.5014 10.308 15.5014 8.45199C15.5014 7.42799 15.9254 6.57199 16.7734 5.88399C17.6374 5.19599 18.7814 4.85199 20.2054 4.85199C21.4694 4.85199 22.5414 5.17199 23.4214 5.81199C24.3014 6.45199 24.8614 7.31599 25.1014 8.40399L22.9654 8.97999C22.8534 8.35599 22.5494 7.85199 22.0534 7.46799C21.5574 7.08399 20.9414 6.89199 20.2054 6.89199C19.4694 6.89199 18.8854 7.04399 18.4534 7.34799C18.0214 7.63599 17.8054 8.00399 17.8054 8.45199C17.8054 9.21999 18.3894 9.72399 19.5574 9.96399L21.6454 10.42C23.9654 10.916 25.1254 12.116 25.1254 14.02C25.1254 15.156 24.6534 16.076 23.7094 16.78C22.7814 17.468 21.5334 17.812 19.9654 17.812Z" fill="white"/>
<path d="M30.7226 17.5C29.7306 17.5 28.9226 17.22 28.2986 16.66C27.6746 16.1 27.3626 15.268 27.3626 14.164V7.204H25.2026V5.164H27.4106V1.5H29.7626V5.164H33.4346V7.204H29.7626V14.044C29.7626 14.924 30.1866 15.364 31.0346 15.364H33.4346V17.5H30.7226Z" fill="white"/>
<path d="M34.231 17.5V5.16399H36.6309V7.37199H37.1109C37.3029 6.66799 37.7029 6.07599 38.3109 5.59599C38.9189 5.09999 39.6709 4.85199 40.5669 4.85199C41.5269 4.85199 42.3349 5.09199 42.9909 5.57199C43.6469 6.03599 44.1029 6.63599 44.3589 7.37199H44.8869C45.1429 6.63599 45.567 6.03599 46.159 5.57199C46.751 5.09199 47.495 4.85199 48.391 4.85199C49.719 4.85199 50.767 5.28399 51.535 6.14799C52.303 7.01199 52.687 8.07599 52.687 9.33999V17.5H50.287V10.036C50.287 9.15599 50.039 8.45199 49.543 7.92399C49.047 7.39599 48.3749 7.13199 47.5269 7.13199C46.6949 7.13199 46.0069 7.41999 45.4629 7.99599C44.9349 8.55599 44.6709 9.32399 44.6709 10.3V17.5H42.2709V10.012C42.2709 9.14799 42.0069 8.45199 41.4789 7.92399C40.9509 7.39599 40.2789 7.13199 39.4629 7.13199C38.6309 7.13199 37.9509 7.42799 37.4229 8.01999C36.8949 8.61199 36.6309 9.37199 36.6309 10.3V17.5H34.231Z" fill="white"/>
<path d="M54.0352 17.328V5.992H56.4352V17.328H54.0352ZM54.0112 3.5V1.5H56.4352V3.5H54.0112Z" fill="white"/>
<path d="M57.7612 17.5V1.5H60.1613V17.5H57.7612Z" fill="white"/>
<path d="M66.8439 17.812C65.0039 17.812 63.5079 17.204 62.3559 15.988C61.2039 14.756 60.6279 13.18 60.6279 11.26C60.6279 9.35599 61.2119 7.81199 62.3799 6.62799C63.5639 5.44399 65.0359 4.85199 66.7959 4.85199C68.6039 4.85199 70.0439 5.45199 71.1159 6.65199C72.1879 7.83599 72.6919 9.27599 72.6279 10.972L72.5799 12.124H63.0039C63.1479 13.228 63.5479 14.1 64.2039 14.74C64.8759 15.38 65.7559 15.7 66.8439 15.7C68.3639 15.7 69.5159 15.092 70.2999 13.876L72.0759 15.028C71.5639 15.892 70.8599 16.572 69.9639 17.068C69.0679 17.564 68.0279 17.812 66.8439 17.812ZM63.0519 10.108H70.2999C70.2679 9.21199 69.9239 8.45199 69.2679 7.82799C68.6119 7.20399 67.7879 6.89199 66.7959 6.89199C65.7879 6.89199 64.9559 7.18799 64.2999 7.77999C63.6599 8.35599 63.2439 9.13199 63.0519 10.108Z" fill="white"/>
<path d="M74 1.5H91V17.5H74V1.5Z" fill="white"/>
<path d="M78.3105 12.5V12.396L80.1665 6.89999H81.5585L83.4065 12.396V12.5H82.5745L82.1585 11.26H79.5505L79.1345 12.5H78.3105ZM79.8065 10.484H81.9025L80.9345 7.60399H80.7665L79.8065 10.484Z" fill="black"/>
<path d="M83.167 12.5V11.74H84.239V7.65999H83.167V6.89999H86.135V7.65999H85.063V11.74H86.135V12.5H83.167Z" fill="black"/>
<path d="M99.5 1.5V17.5" stroke="white" stroke-opacity="0.5"/>
<path d="M109.278 15V3.36364H113.426C114.331 3.36364 115.081 3.52841 115.676 3.85795C116.271 4.1875 116.716 4.63826 117.011 5.21023C117.307 5.77841 117.455 6.41856 117.455 7.13068C117.455 7.84659 117.305 8.49053 117.006 9.0625C116.71 9.63068 116.263 10.0814 115.665 10.4148C115.07 10.7443 114.322 10.9091 113.42 10.9091H110.568V9.42045H113.261C113.833 9.42045 114.297 9.32197 114.653 9.125C115.009 8.92424 115.271 8.65152 115.438 8.30682C115.604 7.96212 115.688 7.57008 115.688 7.13068C115.688 6.69129 115.604 6.30114 115.438 5.96023C115.271 5.61932 115.008 5.35227 114.648 5.15909C114.292 4.96591 113.822 4.86932 113.239 4.86932H111.034V15H109.278ZM120.435 3.36364V15H118.736V3.36364H120.435ZM124.621 15.1932C124.068 15.1932 123.568 15.0909 123.121 14.8864C122.674 14.678 122.319 14.3769 122.058 13.983C121.8 13.589 121.672 13.1061 121.672 12.5341C121.672 12.0417 121.766 11.6364 121.956 11.3182C122.145 11 122.401 10.7481 122.723 10.5625C123.045 10.3769 123.405 10.2367 123.802 10.142C124.2 10.0473 124.605 9.97538 125.018 9.92614C125.541 9.86553 125.965 9.81629 126.291 9.77841C126.617 9.73674 126.854 9.67045 127.001 9.57955C127.149 9.48864 127.223 9.34091 127.223 9.13636V9.09659C127.223 8.60038 127.083 8.21591 126.802 7.94318C126.526 7.67045 126.113 7.53409 125.564 7.53409C124.992 7.53409 124.541 7.66098 124.211 7.91477C123.886 8.16477 123.66 8.44318 123.535 8.75L121.939 8.38636C122.128 7.85606 122.405 7.42803 122.768 7.10227C123.136 6.77273 123.558 6.53409 124.035 6.38636C124.513 6.23485 125.015 6.15909 125.541 6.15909C125.89 6.15909 126.259 6.20076 126.649 6.28409C127.043 6.36364 127.41 6.51136 127.751 6.72727C128.096 6.94318 128.378 7.25189 128.598 7.65341C128.818 8.05114 128.927 8.56818 128.927 9.20455V15H127.268V13.8068H127.2C127.09 14.0265 126.925 14.2424 126.706 14.4545C126.486 14.6667 126.204 14.8428 125.859 14.983C125.515 15.1231 125.102 15.1932 124.621 15.1932ZM124.99 13.8295C125.46 13.8295 125.861 13.7367 126.194 13.5511C126.532 13.3655 126.787 13.1231 126.961 12.8239C127.14 12.5208 127.229 12.197 127.229 11.8523V10.7273C127.168 10.7879 127.05 10.8447 126.876 10.8977C126.706 10.947 126.511 10.9905 126.291 11.0284C126.071 11.0625 125.857 11.0947 125.649 11.125C125.441 11.1515 125.266 11.1742 125.126 11.1932C124.797 11.2348 124.496 11.3049 124.223 11.4034C123.954 11.5019 123.738 11.6439 123.575 11.8295C123.416 12.0114 123.336 12.2538 123.336 12.5568C123.336 12.9773 123.492 13.2955 123.802 13.5114C124.113 13.7235 124.509 13.8295 124.99 13.8295ZM134.624 6.27273V7.63636H129.857V6.27273H134.624ZM131.135 4.18182H132.834V12.4375C132.834 12.767 132.884 13.0152 132.982 13.1818C133.08 13.3447 133.207 13.4564 133.363 13.517C133.522 13.5739 133.694 13.6023 133.88 13.6023C134.016 13.6023 134.135 13.5928 134.238 13.5739C134.34 13.5549 134.419 13.5398 134.476 13.5284L134.783 14.9318C134.685 14.9697 134.544 15.0076 134.363 15.0455C134.181 15.0871 133.954 15.1098 133.681 15.1136C133.234 15.1212 132.817 15.0417 132.431 14.875C132.044 14.7083 131.732 14.4508 131.493 14.1023C131.255 13.7538 131.135 13.3163 131.135 12.7898V4.18182ZM140.017 6.27273V7.63636H135.085V6.27273H140.017ZM136.437 15V5.26136C136.437 4.71591 136.556 4.26326 136.795 3.90341C137.034 3.53977 137.35 3.26894 137.744 3.09091C138.138 2.90909 138.566 2.81818 139.028 2.81818C139.369 2.81818 139.661 2.84659 139.903 2.90341C140.145 2.95644 140.325 3.00568 140.443 3.05114L140.045 4.42614C139.966 4.40341 139.863 4.37689 139.738 4.34659C139.613 4.3125 139.462 4.29545 139.284 4.29545C138.871 4.29545 138.575 4.39773 138.397 4.60227C138.223 4.80682 138.136 5.10227 138.136 5.48864V15H136.437ZM144.462 15.1761C143.644 15.1761 142.93 14.9886 142.32 14.6136C141.71 14.2386 141.237 13.714 140.899 13.0398C140.562 12.3655 140.394 11.5777 140.394 10.6761C140.394 9.77083 140.562 8.97917 140.899 8.30114C141.237 7.62311 141.71 7.09659 142.32 6.72159C142.93 6.34659 143.644 6.15909 144.462 6.15909C145.28 6.15909 145.994 6.34659 146.604 6.72159C147.214 7.09659 147.687 7.62311 148.024 8.30114C148.362 8.97917 148.53 9.77083 148.53 10.6761C148.53 11.5777 148.362 12.3655 148.024 13.0398C147.687 13.714 147.214 14.2386 146.604 14.6136C145.994 14.9886 145.28 15.1761 144.462 15.1761ZM144.468 13.75C144.998 13.75 145.437 13.6098 145.786 13.3295C146.134 13.0492 146.392 12.6761 146.559 12.2102C146.729 11.7443 146.814 11.2311 146.814 10.6705C146.814 10.1136 146.729 9.60227 146.559 9.13636C146.392 8.66667 146.134 8.28977 145.786 8.00568C145.437 7.72159 144.998 7.57955 144.468 7.57955C143.934 7.57955 143.49 7.72159 143.138 8.00568C142.79 8.28977 142.53 8.66667 142.36 9.13636C142.193 9.60227 142.11 10.1136 142.11 10.6705C142.11 11.2311 142.193 11.7443 142.36 12.2102C142.53 12.6761 142.79 13.0492 143.138 13.3295C143.49 13.6098 143.934 13.75 144.468 13.75ZM149.786 15V6.27273H151.428V7.65909H151.519C151.678 7.18939 151.959 6.82008 152.36 6.55114C152.766 6.27841 153.224 6.14205 153.735 6.14205C153.841 6.14205 153.966 6.14583 154.11 6.15341C154.258 6.16098 154.374 6.17045 154.457 6.18182V7.80682C154.389 7.78788 154.267 7.76705 154.093 7.74432C153.919 7.7178 153.745 7.70455 153.571 7.70455C153.169 7.70455 152.811 7.78977 152.497 7.96023C152.186 8.12689 151.94 8.35985 151.758 8.65909C151.576 8.95455 151.485 9.29167 151.485 9.67045V15H149.786ZM155.287 15V6.27273H156.918V7.69318H157.026C157.208 7.21212 157.505 6.83712 157.918 6.56818C158.331 6.29545 158.825 6.15909 159.401 6.15909C159.984 6.15909 160.473 6.29545 160.867 6.56818C161.264 6.84091 161.558 7.21591 161.747 7.69318H161.838C162.047 7.22727 162.378 6.85606 162.833 6.57955C163.287 6.29924 163.829 6.15909 164.458 6.15909C165.249 6.15909 165.895 6.4072 166.395 6.90341C166.899 7.39962 167.151 8.14773 167.151 9.14773V15H165.452V9.30682C165.452 8.71591 165.291 8.28788 164.969 8.02273C164.647 7.75758 164.262 7.625 163.815 7.625C163.262 7.625 162.833 7.79545 162.526 8.13636C162.219 8.47348 162.065 8.9072 162.065 9.4375V15H160.372V9.19886C160.372 8.72538 160.225 8.3447 159.929 8.05682C159.634 7.76894 159.249 7.625 158.776 7.625C158.454 7.625 158.156 7.71023 157.884 7.88068C157.615 8.04735 157.397 8.2803 157.23 8.57955C157.067 8.87879 156.986 9.22538 156.986 9.61932V15H155.287ZM176.285 15H172.518V3.36364H176.405C177.545 3.36364 178.524 3.59659 179.342 4.0625C180.16 4.52462 180.787 5.18939 181.223 6.05682C181.662 6.92045 181.882 7.95644 181.882 9.16477C181.882 10.3769 181.66 11.4186 181.217 12.2898C180.778 13.161 180.142 13.8314 179.308 14.3011C178.475 14.767 177.467 15 176.285 15ZM174.274 13.4659H176.189C177.075 13.4659 177.812 13.2992 178.399 12.9659C178.986 12.6288 179.426 12.142 179.717 11.5057C180.009 10.8655 180.155 10.0852 180.155 9.16477C180.155 8.25189 180.009 7.47727 179.717 6.84091C179.429 6.20455 178.999 5.72159 178.428 5.39205C177.856 5.0625 177.145 4.89773 176.297 4.89773H174.274V13.4659ZM186.965 15.1761C186.147 15.1761 185.433 14.9886 184.823 14.6136C184.213 14.2386 183.74 13.714 183.403 13.0398C183.065 12.3655 182.897 11.5777 182.897 10.6761C182.897 9.77083 183.065 8.97917 183.403 8.30114C183.74 7.62311 184.213 7.09659 184.823 6.72159C185.433 6.34659 186.147 6.15909 186.965 6.15909C187.783 6.15909 188.497 6.34659 189.107 6.72159C189.717 7.09659 190.19 7.62311 190.528 8.30114C190.865 8.97917 191.033 9.77083 191.033 10.6761C191.033 11.5777 190.865 12.3655 190.528 13.0398C190.19 13.714 189.717 14.2386 189.107 14.6136C188.497 14.9886 187.783 15.1761 186.965 15.1761ZM186.971 13.75C187.501 13.75 187.94 13.6098 188.289 13.3295C188.637 13.0492 188.895 12.6761 189.062 12.2102C189.232 11.7443 189.317 11.2311 189.317 10.6705C189.317 10.1136 189.232 9.60227 189.062 9.13636C188.895 8.66667 188.637 8.28977 188.289 8.00568C187.94 7.72159 187.501 7.57955 186.971 7.57955C186.437 7.57955 185.993 7.72159 185.641 8.00568C185.293 8.28977 185.033 8.66667 184.863 9.13636C184.696 9.60227 184.613 10.1136 184.613 10.6705C184.613 11.2311 184.696 11.7443 184.863 12.2102C185.033 12.6761 185.293 13.0492 185.641 13.3295C185.993 13.6098 186.437 13.75 186.971 13.75ZM195.966 15.1761C195.121 15.1761 194.394 14.9848 193.784 14.6023C193.178 14.2159 192.712 13.6837 192.386 13.0057C192.06 12.3277 191.897 11.5511 191.897 10.6761C191.897 9.78977 192.064 9.00758 192.397 8.32955C192.731 7.64773 193.201 7.11553 193.807 6.73295C194.413 6.35038 195.127 6.15909 195.949 6.15909C196.612 6.15909 197.202 6.2822 197.721 6.52841C198.24 6.77083 198.659 7.11174 198.977 7.55114C199.299 7.99053 199.49 8.50379 199.551 9.09091H197.897C197.807 8.68182 197.598 8.32955 197.272 8.03409C196.951 7.73864 196.519 7.59091 195.977 7.59091C195.504 7.59091 195.089 7.71591 194.733 7.96591C194.38 8.21212 194.106 8.56439 193.909 9.02273C193.712 9.47727 193.613 10.0152 193.613 10.6364C193.613 11.2727 193.71 11.822 193.903 12.2841C194.096 12.7462 194.369 13.1042 194.721 13.358C195.077 13.6117 195.496 13.7386 195.977 13.7386C196.299 13.7386 196.591 13.6799 196.852 13.5625C197.117 13.4413 197.339 13.2689 197.517 13.0455C197.699 12.822 197.826 12.553 197.897 12.2386H199.551C199.49 12.803 199.307 13.3068 199 13.75C198.693 14.1932 198.282 14.5417 197.767 14.7955C197.255 15.0492 196.655 15.1761 195.966 15.1761ZM207.267 8.40341L205.728 8.67614C205.663 8.47917 205.561 8.29167 205.421 8.11364C205.284 7.93561 205.099 7.78977 204.864 7.67614C204.629 7.5625 204.336 7.50568 203.983 7.50568C203.502 7.50568 203.101 7.61364 202.779 7.82955C202.457 8.04167 202.296 8.31629 202.296 8.65341C202.296 8.94508 202.404 9.17992 202.62 9.35795C202.836 9.53598 203.184 9.68182 203.665 9.79545L205.052 10.1136C205.855 10.2992 206.453 10.5852 206.847 10.9716C207.241 11.358 207.438 11.8598 207.438 12.4773C207.438 13 207.286 13.4659 206.983 13.875C206.684 14.2803 206.266 14.5985 205.728 14.8295C205.194 15.0606 204.574 15.1761 203.87 15.1761C202.892 15.1761 202.095 14.9678 201.478 14.5511C200.86 14.1307 200.481 13.5341 200.341 12.7614L201.983 12.5114C202.086 12.9394 202.296 13.2633 202.614 13.483C202.932 13.6989 203.347 13.8068 203.858 13.8068C204.415 13.8068 204.86 13.6913 205.194 13.4602C205.527 13.2254 205.694 12.9394 205.694 12.6023C205.694 12.3295 205.591 12.1004 205.387 11.9148C205.186 11.7292 204.877 11.589 204.461 11.4943L202.983 11.1705C202.169 10.9848 201.567 10.6894 201.177 10.2841C200.79 9.87879 200.597 9.36553 200.597 8.74432C200.597 8.22917 200.741 7.77841 201.029 7.39205C201.317 7.00568 201.714 6.70455 202.222 6.48864C202.73 6.26894 203.311 6.15909 203.966 6.15909C204.909 6.15909 205.652 6.36364 206.194 6.77273C206.735 7.17803 207.093 7.72159 207.267 8.40341Z" fill="white"/>
</g>
<defs>
<clipPath id="clip0_2039_19466">
<rect width="209" height="19" fill="white"/>
</clipPath>
</defs>
</svg>
